#!OML:ASF H:\Terrain\Patient Classification 1\Walking\steve\steve.ASF
:FULLY-SPECIFIED
:DEGREES
261
root 7.73061 16.4781 17.2369 6.96385 -8.96637 -4.57929
lowerback -1.65441 4.60673 7.3611
upperback -2.44922 6.10752 1.5711
thorax -1.01883 2.95635 -2.39565
lowerneck -9.43059 0.566142 -0.22179
upperneck 14.5978 1.39826 -3.71276
head 5.99923 0.386503 -1.026
rclavicle -4.89228e-014 -2.18663e-014
rhumerus -10.3524 1.0336 -84.198
rradius 45.4656
rwrist -18.242
rhand -19.8479 -39.1687
rfingers 7.12502
rthumb 6.48665 -69.0494
lclavicle -4.89228e-014 -2.18663e-014
lhumerus -56.4179 27.7505 55.3348
lradius 8.95212
lwrist -26.0772
lhand -18.9411 -10.4574
lfingers 7.12502
lthumb 7.36196 19.3946
rfemur 1.3739 -3.82776 26.4075
rtibia 20.3814
rfoot -13.4254 23.8147
rtoes 12.7528
lfemur -36.0622 -0.00447504 -10.4887
ltibia 19.7636
lfoot -22.1985 13.2493
ltoes -14.8115
262
root 7.74964 16.4736 17.457 7.10781 -9.53533 -4.5228
lowerback -1.76295 4.80012 7.29943
upperback -2.40845 6.35167 1.48208
thorax -0.889105 3.08378 -2.4327
lowerneck -9.37529 0.638596 -0.4101
upperneck 14.3116 1.45751 -3.34472
head 5.89665 0.437581 -0.87333
rclavicle 1.79965e-013 6.04305e-014
rhumerus -9.36268 1.65119 -83.9504
rradius 46.2689
rwrist -18.4057
rhand -21.5459 -40.021
rfingers 7.12502
rthumb 4.84729 -69.9456
lclavicle 1.79965e-013 6.04305e-014
lhumerus -57.3123 27.3079 54.7354
lradius 8.92693
lwrist -25.7718
lhand -19.4249 -10.4081
lfingers 7.12502
lthumb 6.89496 19.4596
rfemur 2.63805 -3.62242 25.9073
rtibia 19.2511
rfoot -13.317 24.0066
rtoes 9.32777
lfemur -36.2518 -1.83749 -9.23661
ltibia 17.91
lfoot -23.2811 14.9494
ltoes -13.5885
263
root 7.76447 16.4617 17.6774 7.55059 -9.9399 -4.91038
lowerback -1.99313 4.94292 7.59479
upperback -2.50252 6.52115 1.49167
thorax -0.812739 3.16443 -2.55975
lowerneck -9.00637 0.778352 -0.365229
upperneck 13.7453 1.60295 -3.2614
head 5.65733 0.528467 -0.843228
rclavicle -2.78858e-014 -1.31198e-014
rhumerus -8.27298 2.05957 -83.7755
rradius 46.6787
rwrist -18.2226
rhand -19.7223 -35.6808
rfingers 7.12502
rthumb 6.60786 -65.5577
lclavicle -2.78858e-014 -1.31198e-014
lhumerus -58.3438 26.8079 53.9623
lradius 8.9834
lwrist -25.5033
lhand -19.7493 -10.3124
lfingers 7.12502
lthumb 6.58186 19.5653
rfemur 3.46642 -3.29615 25.962
rtibia 18.3594
rfoot -12.267 24.4572
rtoes 9.86789
lfemur -36.7485 -3.02863 -7.79376
ltibia 16.332
lfoot -23.8888 16.3212
ltoes -11.349
264
root 7.77707 16.4434 17.896 7.8044 -10.4114 -5.1083
lowerback -1.89429 5.04762 7.62091
upperback -2.67701 6.68011 1.49245
thorax -1.031 3.23178 -2.58638
lowerneck -8.74363 0.896131 -0.493452
upperneck 13.4993 1.74952 -3.12598
head 5.53556 0.609048 -0.769463
rclavicle 9.92106e-014 5.56597e-014
rhumerus -7.72935 2.68079 -83.5751
rradius 47.409
rwrist -18.0686
rhand -21.1935 -37.1065
rfingers 7.12502
rthumb 5.18752 -67.023
lclavicle 9.92106e-014 5.56597e-014
lhumerus -59.4472 26.3408 53.1459
lradius 9.05101
lwrist -25.2319
lhand -19.5486 -9.989
lfingers 7.12502
lthumb 6.77554 19.8826
rfemur 4.3008 -2.62607 25.847
rtibia 17.628
rfoot -10.4768 24.7212
rtoes 13.6669
lfemur -37.0743 -3.46063 -6.98652
ltibia 15.0944
lfoot -24.9809 16.4166
ltoes -8.63516
265
root 7.7963 16.4289 18.1259 7.77674 -10.8306 -4.88971
lowerback -1.81743 5.11123 7.34769
upperback -2.71421 6.77595 1.37245
thorax -1.11798 3.27962 -2.56753
lowerneck -9.0075 0.934675 -0.596355
upperneck 13.7657 1.79727 -2.90593
head 5.66174 0.636499 -0.679077
rclavicle 6.59204e-014 4.49253e-014
rhumerus -7.40483 3.33995 -83.4557
rradius 48.4559
rwrist -18.3737
rhand -20.4456 -35.2601
rfingers 7.12502
rthumb 5.90958 -65.1577
lclavicle 6.59204e-014 4.49253e-014
lhumerus -60.4245 25.9568 52.4164
lradius 9.11664
lwrist -25.026
lhand -19.423 -9.52582
lfingers 7.12502
lthumb 6.89685 20.3418
rfemur 5.4246 -2.07924 25.2392
rtibia 16.959
rfoot -9.44175 24.6698
rtoes 14.3219
lfemur -37.1614 -2.62145 -7.58109
ltibia 14.2845
lfoot -25.0049 15.0263
ltoes -7.10096
266
root 7.81465 16.4068 18.3564 7.70328 -10.9912 -4.96495
lowerback -1.74295 5.15529 7.40417
upperback -2.62368 6.83584 1.33395
thorax -1.04887 3.31273 -2.63697
lowerneck -9.29179 0.893361 -0.559527
upperneck 13.7358 1.73744 -2.89565
head 5.7005 0.607722 -0.685292
rclavicle 1.10698e-014 -3.57812e-015
rhumerus -6.85633 3.74392 -83.2281
rradius 49.3843
rwrist -18.7753
rhand -21.5323 -37.363
rfingers 7.12502
rthumb 4.86041 -67.2872
lclavicle 1.10698e-014 -3.57812e-015
lhumerus -61.0509 25.6722 51.9565
lradius 8.92421
lwrist -24.8181
lhand -20.3076 -9.44206
lfingers 7.12502
lthumb 6.04285 20.4518
rfemur 6.72382 -1.78998 24.9943
rtibia 16.3905
rfoot -9.39718 24.4941
rtoes 10.6074
lfemur -37.1818 -2.04252 -7.92786
ltibia 13.7934
lfoot -23.9461 14.5678
ltoes -8.57917
